<svg xmlns="http://www.w3.org/2000/svg" viewBox="0 0 1600 1000" preserveAspectRatio="xMidYMid slice" role="img" aria-label="Forward view from a glass flight deck, primary flight displays on an ILS approach to runway 05L at 2,500 feet">
<defs>
<linearGradient id="sky" x1="0" y1="0" x2="0" y2="1"><stop offset="0" stop-color="#101a28"/><stop offset="0.34" stop-color="#1d2f45"/><stop offset="0.62" stop-color="#33475d"/><stop offset="0.84" stop-color="#5b5a63"/><stop offset="1" stop-color="#6d6058"/></linearGradient>
<linearGradient id="shell" x1="0" y1="0" x2="0" y2="1"><stop offset="0" stop-color="#34373b"/><stop offset="0.55" stop-color="#26282b"/><stop offset="1" stop-color="#141517"/></linearGradient>
<linearGradient id="panel" x1="0" y1="0" x2="0" y2="1"><stop offset="0" stop-color="#1d1f22"/><stop offset="1" stop-color="#141517"/></linearGradient>
<linearGradient id="scr" x1="0" y1="0" x2="0" y2="1"><stop offset="0" stop-color="#050e09"/><stop offset="1" stop-color="#16321f"/></linearGradient>
<filter id="glow" x="-40%" y="-40%" width="180%" height="180%"><feGaussianBlur stdDeviation="4"/></filter>
<filter id="soft" x="-40%" y="-40%" width="180%" height="180%"><feGaussianBlur stdDeviation="14"/></filter>
<filter id="cloudb" x="-40%" y="-40%" width="180%" height="180%"><feGaussianBlur stdDeviation="18"/></filter>
<clipPath id="cpADI"><circle cx="330" cy="631" r="88"/></clipPath>
<clipPath id="cpMAP"><rect x="838" y="540" width="300" height="182" rx="4"/></clipPath>
<clipPath id="cpSVS"><rect x="1160" y="540" width="286" height="182" rx="4"/></clipPath>
<clipPath id="cpHUD"><path d="M566 96 H1034 V300 L800 336 L566 300 Z"/></clipPath>
</defs>
<rect width="1600" height="1000" fill="url(#sky)"/>
<g filter="url(#cloudb)" opacity="0.55" fill="#39434f">
<ellipse cx="300" cy="300" rx="260" ry="34"/>
<ellipse cx="1180" cy="268" rx="300" ry="30"/>
<ellipse cx="760" cy="336" rx="220" ry="24"/>
<ellipse cx="1480" cy="318" rx="200" ry="26"/>
<ellipse cx="120" cy="350" rx="210" ry="22"/>
</g>
<g filter="url(#soft)" opacity="0.55"><rect x="0" y="352" width="1600" height="26" fill="#39434f"/></g>
<path d="M566 96 H1034 V300 L800 336 L566 300 Z" fill="#7dfab4" opacity="0.05"/>
<path d="M566 96 H1034 V300 L800 336 L566 300 Z" fill="none" stroke="#34373b" stroke-width="5" opacity="0.85"/>
<g clip-path="url(#cpHUD)" opacity="0.92" filter="url(#glow)">
<g stroke="#7dfab4" fill="#7dfab4" stroke-linecap="round">
<line x1="640" y1="130" x2="960" y2="130" stroke-width="1.6" opacity="0.75"/>
<line x1="640" y1="124" x2="640" y2="130" stroke-width="1.6"/>
<text x="640" y="118" fill="#7dfab4" font-family="ui-monospace,'SF Mono',Menlo,Consolas,'DejaVu Sans Mono',monospace" font-size="11" font-weight="400" text-anchor="middle" opacity="1" letter-spacing="0.5">030</text>
<line x1="680" y1="124" x2="680" y2="130" stroke-width="1.6"/>
<text x="680" y="118" fill="#7dfab4" font-family="ui-monospace,'SF Mono',Menlo,Consolas,'DejaVu Sans Mono',monospace" font-size="11" font-weight="400" text-anchor="middle" opacity="1" letter-spacing="0.5">035</text>
<line x1="720" y1="124" x2="720" y2="130" stroke-width="1.6"/>
<text x="720" y="118" fill="#7dfab4" font-family="ui-monospace,'SF Mono',Menlo,Consolas,'DejaVu Sans Mono',monospace" font-size="11" font-weight="400" text-anchor="middle" opacity="1" letter-spacing="0.5">040</text>
<line x1="760" y1="124" x2="760" y2="130" stroke-width="1.6"/>
<text x="760" y="118" fill="#7dfab4" font-family="ui-monospace,'SF Mono',Menlo,Consolas,'DejaVu Sans Mono',monospace" font-size="11" font-weight="400" text-anchor="middle" opacity="1" letter-spacing="0.5">045</text>
<line x1="800" y1="124" x2="800" y2="130" stroke-width="1.6"/>
<text x="800" y="118" fill="#7dfab4" font-family="ui-monospace,'SF Mono',Menlo,Consolas,'DejaVu Sans Mono',monospace" font-size="11" font-weight="400" text-anchor="middle" opacity="1" letter-spacing="0.5">050</text>
<line x1="840" y1="124" x2="840" y2="130" stroke-width="1.6"/>
<text x="840" y="118" fill="#7dfab4" font-family="ui-monospace,'SF Mono',Menlo,Consolas,'DejaVu Sans Mono',monospace" font-size="11" font-weight="400" text-anchor="middle" opacity="1" letter-spacing="0.5">055</text>
<line x1="880" y1="124" x2="880" y2="130" stroke-width="1.6"/>
<text x="880" y="118" fill="#7dfab4" font-family="ui-monospace,'SF Mono',Menlo,Consolas,'DejaVu Sans Mono',monospace" font-size="11" font-weight="400" text-anchor="middle" opacity="1" letter-spacing="0.5">060</text>
<line x1="920" y1="124" x2="920" y2="130" stroke-width="1.6"/>
<text x="920" y="118" fill="#7dfab4" font-family="ui-monospace,'SF Mono',Menlo,Consolas,'DejaVu Sans Mono',monospace" font-size="11" font-weight="400" text-anchor="middle" opacity="1" letter-spacing="0.5">065</text>
<line x1="960" y1="124" x2="960" y2="130" stroke-width="1.6"/>
<text x="960" y="118" fill="#7dfab4" font-family="ui-monospace,'SF Mono',Menlo,Consolas,'DejaVu Sans Mono',monospace" font-size="11" font-weight="400" text-anchor="middle" opacity="1" letter-spacing="0.5">070</text>
<path d="M800 134 L794 144 H806 Z" stroke-width="1.4"/>
<line x1="700" y1="178" x2="758" y2="178" stroke-width="1.5" opacity="0.85"/>
<line x1="842" y1="178" x2="900" y2="178" stroke-width="1.5" opacity="0.85"/>
<text x="688" y="182" fill="#7dfab4" font-family="ui-monospace,'SF Mono',Menlo,Consolas,'DejaVu Sans Mono',monospace" font-size="11" font-weight="400" text-anchor="end" opacity="0.85" letter-spacing="0.5">10</text>
<line x1="668" y1="224" x2="756" y2="224" stroke-width="1.8"/>
<line x1="844" y1="224" x2="932" y2="224" stroke-width="1.8"/>
<line x1="700" y1="270" x2="758" y2="270" stroke-width="1.5" opacity="0.85"/>
<line x1="842" y1="270" x2="900" y2="270" stroke-width="1.5" opacity="0.85"/>
<text x="688" y="274" fill="#7dfab4" font-family="ui-monospace,'SF Mono',Menlo,Consolas,'DejaVu Sans Mono',monospace" font-size="11" font-weight="400" text-anchor="end" opacity="0.85" letter-spacing="0.5">-10</text>
<circle cx="800" cy="224" r="11" fill="none" stroke-width="2"/>
<line x1="789" y1="224" x2="775" y2="224" stroke-width="2"/>
<line x1="811" y1="224" x2="825" y2="224" stroke-width="2"/>
<line x1="800" y1="213" x2="800" y2="203" stroke-width="2"/>
<rect x="596" y="208" width="62" height="30" fill="none" stroke-width="1.6"/>
<text x="627" y="229" fill="#7dfab4" font-family="ui-monospace,'SF Mono',Menlo,Consolas,'DejaVu Sans Mono',monospace" font-size="19" font-weight="600" text-anchor="middle" opacity="1" letter-spacing="0.5">180</text>
<text x="627" y="196" fill="#7dfab4" font-family="ui-monospace,'SF Mono',Menlo,Consolas,'DejaVu Sans Mono',monospace" font-size="10" font-weight="400" text-anchor="middle" opacity="0.8" letter-spacing="0.5">KIAS</text>
<rect x="942" y="208" width="76" height="30" fill="none" stroke-width="1.6"/>
<text x="980" y="229" fill="#7dfab4" font-family="ui-monospace,'SF Mono',Menlo,Consolas,'DejaVu Sans Mono',monospace" font-size="19" font-weight="600" text-anchor="middle" opacity="1" letter-spacing="0.5">2500</text>
<text x="980" y="196" fill="#7dfab4" font-family="ui-monospace,'SF Mono',Menlo,Consolas,'DejaVu Sans Mono',monospace" font-size="10" font-weight="400" text-anchor="middle" opacity="0.8" letter-spacing="0.5">ALT</text>
<text x="627" y="268" fill="#7dfab4" font-family="ui-monospace,'SF Mono',Menlo,Consolas,'DejaVu Sans Mono',monospace" font-size="12" font-weight="400" text-anchor="middle" opacity="0.9" letter-spacing="0.5">M 0.28</text>
<text x="980" y="268" fill="#7dfab4" font-family="ui-monospace,'SF Mono',Menlo,Consolas,'DejaVu Sans Mono',monospace" font-size="12" font-weight="400" text-anchor="middle" opacity="0.9" letter-spacing="0.5">R 5.2</text>
<text x="800" y="292" fill="#7dfab4" font-family="ui-monospace,'SF Mono',Menlo,Consolas,'DejaVu Sans Mono',monospace" font-size="13" font-weight="600" text-anchor="middle" opacity="1" letter-spacing="0.5">ILS 05L</text>
</g></g>
<path d="M0 300 H1600 V430 C1200 470, 1000 484, 800 484 S400 470, 0 430 Z" fill="url(#shell)"/>
<path d="M0 424 C400 464, 600 478, 800 478 S1200 464, 1600 424 V446 C1200 486, 1000 500, 800 500 S400 486, 0 446 Z" fill="#141517" opacity="0.55"/>
<path d="M0 0 H88 L64 200 L80 310 H0 Z" fill="url(#shell)"/>
<path d="M1600 0 H1512 L1536 200 L1520 310 H1600 Z" fill="url(#shell)"/>
<path d="M534 96 L520 300 H548 L562 96 Z" fill="#26282b" opacity="0.9"/>
<path d="M1066 96 L1080 300 H1052 L1038 96 Z" fill="#26282b" opacity="0.9"/>
<rect x="470" y="384" width="96" height="13" rx="6" fill="#f0b429" opacity="0.55"/>
<rect x="586" y="384" width="60" height="13" rx="6" fill="#4ade80" opacity="0.55"/>
<rect x="672" y="384" width="96" height="13" rx="6" fill="#f0b429" opacity="0.55"/>
<rect x="788" y="384" width="60" height="13" rx="6" fill="#4ade80" opacity="0.55"/>
<rect x="874" y="384" width="96" height="13" rx="6" fill="#ef4444" opacity="0.55"/>
<rect x="990" y="384" width="60" height="13" rx="6" fill="#4ade80" opacity="0.55"/>
<text x="470" y="376" fill="#5a5f66" font-family="ui-monospace,'SF Mono',Menlo,Consolas,'DejaVu Sans Mono',monospace" font-size="10" font-weight="400" text-anchor="start" opacity="1" letter-spacing="0.5">MASTER CAUT</text>
<text x="672" y="376" fill="#5a5f66" font-family="ui-monospace,'SF Mono',Menlo,Consolas,'DejaVu Sans Mono',monospace" font-size="10" font-weight="400" text-anchor="start" opacity="1" letter-spacing="0.5">AP DISC</text>
<text x="874" y="376" fill="#5a5f66" font-family="ui-monospace,'SF Mono',Menlo,Consolas,'DejaVu Sans Mono',monospace" font-size="10" font-weight="400" text-anchor="start" opacity="1" letter-spacing="0.5">FIRE</text>
<rect x="140" y="452" width="1320" height="316" rx="14" fill="url(#panel)"/>
<rect x="152" y="464" width="1296" height="292" rx="8" fill="#0d0e10"/>
<rect x="160" y="472" width="1280" height="276" rx="5" fill="url(#scr)"/>
<line x1="160" y1="514" x2="1440" y2="514" stroke="#2b6f47" stroke-width="1.2" opacity="0.8"/>
<text x="176" y="490" fill="#8d9299" font-family="ui-monospace,'SF Mono',Menlo,Consolas,'DejaVu Sans Mono',monospace" font-size="11" font-weight="400" text-anchor="start" opacity="0.95" letter-spacing="0.5">FLAP</text>
<text x="222" y="490" fill="#4ade80" font-family="ui-monospace,'SF Mono',Menlo,Consolas,'DejaVu Sans Mono',monospace" font-size="11" font-weight="600" text-anchor="start" opacity="1" letter-spacing="0.5">20</text>
<text x="176" y="506" fill="#8d9299" font-family="ui-monospace,'SF Mono',Menlo,Consolas,'DejaVu Sans Mono',monospace" font-size="11" font-weight="400" text-anchor="start" opacity="0.95" letter-spacing="0.5">GEAR</text>
<text x="222" y="506" fill="#4ade80" font-family="ui-monospace,'SF Mono',Menlo,Consolas,'DejaVu Sans Mono',monospace" font-size="11" font-weight="600" text-anchor="start" opacity="1" letter-spacing="0.5">DN</text>
<text x="300" y="490" fill="#8d9299" font-family="ui-monospace,'SF Mono',Menlo,Consolas,'DejaVu Sans Mono',monospace" font-size="11" font-weight="400" text-anchor="start" opacity="0.95" letter-spacing="0.5">COM1</text>
<text x="346" y="490" fill="#4ade80" font-family="ui-monospace,'SF Mono',Menlo,Consolas,'DejaVu Sans Mono',monospace" font-size="11" font-weight="600" text-anchor="start" opacity="1" letter-spacing="0.5">128.450</text>
<text x="300" y="506" fill="#8d9299" font-family="ui-monospace,'SF Mono',Menlo,Consolas,'DejaVu Sans Mono',monospace" font-size="11" font-weight="400" text-anchor="start" opacity="0.95" letter-spacing="0.5">COM2</text>
<text x="346" y="506" fill="#4ade80" font-family="ui-monospace,'SF Mono',Menlo,Consolas,'DejaVu Sans Mono',monospace" font-size="11" font-weight="600" text-anchor="start" opacity="1" letter-spacing="0.5">121.500</text>
<text x="452" y="490" fill="#8d9299" font-family="ui-monospace,'SF Mono',Menlo,Consolas,'DejaVu Sans Mono',monospace" font-size="11" font-weight="400" text-anchor="start" opacity="0.95" letter-spacing="0.5">TCN</text>
<text x="498" y="490" fill="#4ade80" font-family="ui-monospace,'SF Mono',Menlo,Consolas,'DejaVu Sans Mono',monospace" font-size="11" font-weight="600" text-anchor="start" opacity="1" letter-spacing="0.5">054X</text>
<text x="452" y="506" fill="#8d9299" font-family="ui-monospace,'SF Mono',Menlo,Consolas,'DejaVu Sans Mono',monospace" font-size="11" font-weight="400" text-anchor="start" opacity="0.95" letter-spacing="0.5">VOR</text>
<text x="498" y="506" fill="#4ade80" font-family="ui-monospace,'SF Mono',Menlo,Consolas,'DejaVu Sans Mono',monospace" font-size="11" font-weight="600" text-anchor="start" opacity="1" letter-spacing="0.5">113.40</text>
<text x="588" y="490" fill="#8d9299" font-family="ui-monospace,'SF Mono',Menlo,Consolas,'DejaVu Sans Mono',monospace" font-size="11" font-weight="400" text-anchor="start" opacity="0.95" letter-spacing="0.5">ILS</text>
<text x="634" y="490" fill="#4ade80" font-family="ui-monospace,'SF Mono',Menlo,Consolas,'DejaVu Sans Mono',monospace" font-size="11" font-weight="600" text-anchor="start" opacity="1" letter-spacing="0.5">110.30</text>
<text x="588" y="506" fill="#8d9299" font-family="ui-monospace,'SF Mono',Menlo,Consolas,'DejaVu Sans Mono',monospace" font-size="11" font-weight="400" text-anchor="start" opacity="0.95" letter-spacing="0.5">DME</text>
<text x="634" y="506" fill="#4ade80" font-family="ui-monospace,'SF Mono',Menlo,Consolas,'DejaVu Sans Mono',monospace" font-size="11" font-weight="600" text-anchor="start" opacity="1" letter-spacing="0.5">5.2</text>
<text x="716" y="490" fill="#8d9299" font-family="ui-monospace,'SF Mono',Menlo,Consolas,'DejaVu Sans Mono',monospace" font-size="11" font-weight="400" text-anchor="start" opacity="0.95" letter-spacing="0.5">IFF</text>
<text x="762" y="490" fill="#f0b429" font-family="ui-monospace,'SF Mono',Menlo,Consolas,'DejaVu Sans Mono',monospace" font-size="11" font-weight="600" text-anchor="start" opacity="1" letter-spacing="0.5">4271</text>
<text x="716" y="506" fill="#8d9299" font-family="ui-monospace,'SF Mono',Menlo,Consolas,'DejaVu Sans Mono',monospace" font-size="11" font-weight="400" text-anchor="start" opacity="0.95" letter-spacing="0.5">SQ</text>
<text x="762" y="506" fill="#4ade80" font-family="ui-monospace,'SF Mono',Menlo,Consolas,'DejaVu Sans Mono',monospace" font-size="11" font-weight="600" text-anchor="start" opacity="1" letter-spacing="0.5">ALT</text>
<text x="836" y="490" fill="#8d9299" font-family="ui-monospace,'SF Mono',Menlo,Consolas,'DejaVu Sans Mono',monospace" font-size="11" font-weight="400" text-anchor="start" opacity="0.95" letter-spacing="0.5">AP</text>
<text x="882" y="490" fill="#4ade80" font-family="ui-monospace,'SF Mono',Menlo,Consolas,'DejaVu Sans Mono',monospace" font-size="11" font-weight="600" text-anchor="start" opacity="1" letter-spacing="0.5">APR</text>
<text x="836" y="506" fill="#8d9299" font-family="ui-monospace,'SF Mono',Menlo,Consolas,'DejaVu Sans Mono',monospace" font-size="11" font-weight="400" text-anchor="start" opacity="0.95" letter-spacing="0.5">FD</text>
<text x="882" y="506" fill="#4ade80" font-family="ui-monospace,'SF Mono',Menlo,Consolas,'DejaVu Sans Mono',monospace" font-size="11" font-weight="600" text-anchor="start" opacity="1" letter-spacing="0.5">CPLD</text>
<text x="952" y="490" fill="#8d9299" font-family="ui-monospace,'SF Mono',Menlo,Consolas,'DejaVu Sans Mono',monospace" font-size="11" font-weight="400" text-anchor="start" opacity="0.95" letter-spacing="0.5">FUEL</text>
<text x="998" y="490" fill="#f0b429" font-family="ui-monospace,'SF Mono',Menlo,Consolas,'DejaVu Sans Mono',monospace" font-size="11" font-weight="600" text-anchor="start" opacity="1" letter-spacing="0.5">5400 LB</text>
<text x="952" y="506" fill="#8d9299" font-family="ui-monospace,'SF Mono',Menlo,Consolas,'DejaVu Sans Mono',monospace" font-size="11" font-weight="400" text-anchor="start" opacity="0.95" letter-spacing="0.5">FF</text>
<text x="998" y="506" fill="#4ade80" font-family="ui-monospace,'SF Mono',Menlo,Consolas,'DejaVu Sans Mono',monospace" font-size="11" font-weight="600" text-anchor="start" opacity="1" letter-spacing="0.5">1150 PPH</text>
<text x="1128" y="490" fill="#8d9299" font-family="ui-monospace,'SF Mono',Menlo,Consolas,'DejaVu Sans Mono',monospace" font-size="11" font-weight="400" text-anchor="start" opacity="0.95" letter-spacing="0.5">ALT</text>
<text x="1174" y="490" fill="#4ade80" font-family="ui-monospace,'SF Mono',Menlo,Consolas,'DejaVu Sans Mono',monospace" font-size="11" font-weight="600" text-anchor="start" opacity="1" letter-spacing="0.5">2500</text>
<text x="1128" y="506" fill="#8d9299" font-family="ui-monospace,'SF Mono',Menlo,Consolas,'DejaVu Sans Mono',monospace" font-size="11" font-weight="400" text-anchor="start" opacity="0.95" letter-spacing="0.5">BARO</text>
<text x="1174" y="506" fill="#4ade80" font-family="ui-monospace,'SF Mono',Menlo,Consolas,'DejaVu Sans Mono',monospace" font-size="11" font-weight="600" text-anchor="start" opacity="1" letter-spacing="0.5">30.06</text>
<text x="1290" y="490" fill="#8d9299" font-family="ui-monospace,'SF Mono',Menlo,Consolas,'DejaVu Sans Mono',monospace" font-size="11" font-weight="400" text-anchor="start" opacity="0.95" letter-spacing="0.5">HDG</text>
<text x="1336" y="490" fill="#4ade80" font-family="ui-monospace,'SF Mono',Menlo,Consolas,'DejaVu Sans Mono',monospace" font-size="11" font-weight="600" text-anchor="start" opacity="1" letter-spacing="0.5">047</text>
<text x="1290" y="506" fill="#8d9299" font-family="ui-monospace,'SF Mono',Menlo,Consolas,'DejaVu Sans Mono',monospace" font-size="11" font-weight="400" text-anchor="start" opacity="0.95" letter-spacing="0.5">CRS</text>
<text x="1336" y="506" fill="#4ade80" font-family="ui-monospace,'SF Mono',Menlo,Consolas,'DejaVu Sans Mono',monospace" font-size="11" font-weight="600" text-anchor="start" opacity="1" letter-spacing="0.5">050</text>
<line x1="288" y1="478" x2="288" y2="512" stroke="#2b6f47" stroke-width="1" opacity="0.55"/>
<line x1="440" y1="478" x2="440" y2="512" stroke="#2b6f47" stroke-width="1" opacity="0.55"/>
<line x1="576" y1="478" x2="576" y2="512" stroke="#2b6f47" stroke-width="1" opacity="0.55"/>
<line x1="704" y1="478" x2="704" y2="512" stroke="#2b6f47" stroke-width="1" opacity="0.55"/>
<line x1="824" y1="478" x2="824" y2="512" stroke="#2b6f47" stroke-width="1" opacity="0.55"/>
<line x1="940" y1="478" x2="940" y2="512" stroke="#2b6f47" stroke-width="1" opacity="0.55"/>
<line x1="1116" y1="478" x2="1116" y2="512" stroke="#2b6f47" stroke-width="1" opacity="0.55"/>
<line x1="1278" y1="478" x2="1278" y2="512" stroke="#2b6f47" stroke-width="1" opacity="0.55"/>
<g clip-path="url(#cpADI)">
<rect x="242" y="540" width="176" height="91" fill="#17618f"/>
<rect x="242" y="631" width="176" height="91" fill="#6d4320"/>
<line x1="242" y1="631" x2="418" y2="631" stroke="#c9d4dc" stroke-width="2.4"/>
<line x1="310" y1="591" x2="350" y2="591" stroke="#c9d4dc" stroke-width="1.4" opacity="0.9"/>
<line x1="300" y1="611" x2="360" y2="611" stroke="#c9d4dc" stroke-width="1.4" opacity="0.9"/>
<line x1="300" y1="651" x2="360" y2="651" stroke="#c9d4dc" stroke-width="1.4" opacity="0.9"/>
<line x1="310" y1="671" x2="350" y2="671" stroke="#c9d4dc" stroke-width="1.4" opacity="0.9"/>
</g>
<circle cx="330" cy="631" r="88" fill="none" stroke="#2b6f47" stroke-width="2"/>
<line x1="330" y1="543" x2="330" y2="551" stroke="#4ade80" stroke-width="1.6" transform="rotate(-60 330 631)"/>
<line x1="330" y1="543" x2="330" y2="549" stroke="#4ade80" stroke-width="1.6" transform="rotate(-45 330 631)"/>
<line x1="330" y1="543" x2="330" y2="551" stroke="#4ade80" stroke-width="1.6" transform="rotate(-30 330 631)"/>
<line x1="330" y1="543" x2="330" y2="548" stroke="#4ade80" stroke-width="1.6" transform="rotate(-20 330 631)"/>
<line x1="330" y1="543" x2="330" y2="553" stroke="#4ade80" stroke-width="1.6" transform="rotate(0 330 631)"/>
<line x1="330" y1="543" x2="330" y2="548" stroke="#4ade80" stroke-width="1.6" transform="rotate(20 330 631)"/>
<line x1="330" y1="543" x2="330" y2="551" stroke="#4ade80" stroke-width="1.6" transform="rotate(30 330 631)"/>
<line x1="330" y1="543" x2="330" y2="549" stroke="#4ade80" stroke-width="1.6" transform="rotate(45 330 631)"/>
<line x1="330" y1="543" x2="330" y2="551" stroke="#4ade80" stroke-width="1.6" transform="rotate(60 330 631)"/>
<path d="M330 557 L322 571 H338 Z" fill="#4ade80" transform="rotate(-8 330 631)"/>
<g stroke="#f0b429" stroke-width="3" fill="none" stroke-linecap="round"><line x1="284" y1="631" x2="312" y2="631"/><line x1="348" y1="631" x2="376" y2="631"/><line x1="330" y1="631" x2="330" y2="631.1"/></g>
<circle cx="330" cy="631" r="3.4" fill="#f0b429"/>
<text x="170" y="532" fill="#8d9299" font-family="ui-monospace,'SF Mono',Menlo,Consolas,'DejaVu Sans Mono',monospace" font-size="12" font-weight="600" text-anchor="start" opacity="1" letter-spacing="0.5">ADI</text>
<text x="330" y="740" fill="#2b6f47" font-family="ui-monospace,'SF Mono',Menlo,Consolas,'DejaVu Sans Mono',monospace" font-size="11" font-weight="400" text-anchor="middle" opacity="1" letter-spacing="0.5">PITCH -2.4   ROLL 2L</text>
<circle cx="660" cy="631" r="88" fill="none" stroke="#2b6f47" stroke-width="2"/>
<line x1="660" y1="543" x2="660" y2="555" stroke="#4ade80" stroke-width="1.6" transform="rotate(0 660 631)" opacity="0.9"/>
<line x1="660" y1="543" x2="660" y2="549" stroke="#4ade80" stroke-width="1" transform="rotate(10 660 631)" opacity="0.9"/>
<line x1="660" y1="543" x2="660" y2="549" stroke="#4ade80" stroke-width="1" transform="rotate(20 660 631)" opacity="0.9"/>
<line x1="660" y1="543" x2="660" y2="555" stroke="#4ade80" stroke-width="1.6" transform="rotate(30 660 631)" opacity="0.9"/>
<line x1="660" y1="543" x2="660" y2="549" stroke="#4ade80" stroke-width="1" transform="rotate(40 660 631)" opacity="0.9"/>
<line x1="660" y1="543" x2="660" y2="549" stroke="#4ade80" stroke-width="1" transform="rotate(50 660 631)" opacity="0.9"/>
<line x1="660" y1="543" x2="660" y2="555" stroke="#4ade80" stroke-width="1.6" transform="rotate(60 660 631)" opacity="0.9"/>
<line x1="660" y1="543" x2="660" y2="549" stroke="#4ade80" stroke-width="1" transform="rotate(70 660 631)" opacity="0.9"/>
<line x1="660" y1="543" x2="660" y2="549" stroke="#4ade80" stroke-width="1" transform="rotate(80 660 631)" opacity="0.9"/>
<line x1="660" y1="543" x2="660" y2="555" stroke="#4ade80" stroke-width="1.6" transform="rotate(90 660 631)" opacity="0.9"/>
<line x1="660" y1="543" x2="660" y2="549" stroke="#4ade80" stroke-width="1" transform="rotate(100 660 631)" opacity="0.9"/>
<line x1="660" y1="543" x2="660" y2="549" stroke="#4ade80" stroke-width="1" transform="rotate(110 660 631)" opacity="0.9"/>
<line x1="660" y1="543" x2="660" y2="555" stroke="#4ade80" stroke-width="1.6" transform="rotate(120 660 631)" opacity="0.9"/>
<line x1="660" y1="543" x2="660" y2="549" stroke="#4ade80" stroke-width="1" transform="rotate(130 660 631)" opacity="0.9"/>
<line x1="660" y1="543" x2="660" y2="549" stroke="#4ade80" stroke-width="1" transform="rotate(140 660 631)" opacity="0.9"/>
<line x1="660" y1="543" x2="660" y2="555" stroke="#4ade80" stroke-width="1.6" transform="rotate(150 660 631)" opacity="0.9"/>
<line x1="660" y1="543" x2="660" y2="549" stroke="#4ade80" stroke-width="1" transform="rotate(160 660 631)" opacity="0.9"/>
<line x1="660" y1="543" x2="660" y2="549" stroke="#4ade80" stroke-width="1" transform="rotate(170 660 631)" opacity="0.9"/>
<line x1="660" y1="543" x2="660" y2="555" stroke="#4ade80" stroke-width="1.6" transform="rotate(180 660 631)" opacity="0.9"/>
<line x1="660" y1="543" x2="660" y2="549" stroke="#4ade80" stroke-width="1" transform="rotate(190 660 631)" opacity="0.9"/>
<line x1="660" y1="543" x2="660" y2="549" stroke="#4ade80" stroke-width="1" transform="rotate(200 660 631)" opacity="0.9"/>
<line x1="660" y1="543" x2="660" y2="555" stroke="#4ade80" stroke-width="1.6" transform="rotate(210 660 631)" opacity="0.9"/>
<line x1="660" y1="543" x2="660" y2="549" stroke="#4ade80" stroke-width="1" transform="rotate(220 660 631)" opacity="0.9"/>
<line x1="660" y1="543" x2="660" y2="549" stroke="#4ade80" stroke-width="1" transform="rotate(230 660 631)" opacity="0.9"/>
<line x1="660" y1="543" x2="660" y2="555" stroke="#4ade80" stroke-width="1.6" transform="rotate(240 660 631)" opacity="0.9"/>
<line x1="660" y1="543" x2="660" y2="549" stroke="#4ade80" stroke-width="1" transform="rotate(250 660 631)" opacity="0.9"/>
<line x1="660" y1="543" x2="660" y2="549" stroke="#4ade80" stroke-width="1" transform="rotate(260 660 631)" opacity="0.9"/>
<line x1="660" y1="543" x2="660" y2="555" stroke="#4ade80" stroke-width="1.6" transform="rotate(270 660 631)" opacity="0.9"/>
<line x1="660" y1="543" x2="660" y2="549" stroke="#4ade80" stroke-width="1" transform="rotate(280 660 631)" opacity="0.9"/>
<line x1="660" y1="543" x2="660" y2="549" stroke="#4ade80" stroke-width="1" transform="rotate(290 660 631)" opacity="0.9"/>
<line x1="660" y1="543" x2="660" y2="555" stroke="#4ade80" stroke-width="1.6" transform="rotate(300 660 631)" opacity="0.9"/>
<line x1="660" y1="543" x2="660" y2="549" stroke="#4ade80" stroke-width="1" transform="rotate(310 660 631)" opacity="0.9"/>
<line x1="660" y1="543" x2="660" y2="549" stroke="#4ade80" stroke-width="1" transform="rotate(320 660 631)" opacity="0.9"/>
<line x1="660" y1="543" x2="660" y2="555" stroke="#4ade80" stroke-width="1.6" transform="rotate(330 660 631)" opacity="0.9"/>
<line x1="660" y1="543" x2="660" y2="549" stroke="#4ade80" stroke-width="1" transform="rotate(340 660 631)" opacity="0.9"/>
<line x1="660" y1="543" x2="660" y2="549" stroke="#4ade80" stroke-width="1" transform="rotate(350 660 631)" opacity="0.9"/>
<g transform="rotate(3 660 631)" stroke="#4ade80" stroke-width="2.6" stroke-linecap="round"><line x1="660" y1="559" x2="660" y2="607"/><line x1="660" y1="655" x2="660" y2="703"/><path d="M660 551 L653 565 H667 Z" fill="#4ade80" stroke="none"/></g>
<line x1="668" y1="609" x2="668" y2="653" stroke="#f0b429" stroke-width="2.6"/>
<circle cx="630" cy="631" r="2.4" fill="none" stroke="#2b6f47" stroke-width="1.4"/>
<circle cx="645" cy="631" r="2.4" fill="none" stroke="#2b6f47" stroke-width="1.4"/>
<circle cx="675" cy="631" r="2.4" fill="none" stroke="#2b6f47" stroke-width="1.4"/>
<circle cx="690" cy="631" r="2.4" fill="none" stroke="#2b6f47" stroke-width="1.4"/>
<path d="M654 541 L660 551 L666 541 Z" fill="#f0b429" transform="rotate(12 660 631)"/>
<path d="M660 533 L653 542 H667 Z" fill="#8d9299"/>
<circle cx="660.0" cy="567.0" r="10" fill="#050e09" opacity="0.85"/>
<text x="660.0" y="572.0" fill="#4ade80" font-family="ui-monospace,'SF Mono',Menlo,Consolas,'DejaVu Sans Mono',monospace" font-size="13" font-weight="600" text-anchor="middle" opacity="1" letter-spacing="0.5">N</text>
<circle cx="724.0" cy="631.0" r="10" fill="#050e09" opacity="0.85"/>
<text x="724.0" y="636.0" fill="#4ade80" font-family="ui-monospace,'SF Mono',Menlo,Consolas,'DejaVu Sans Mono',monospace" font-size="13" font-weight="600" text-anchor="middle" opacity="1" letter-spacing="0.5">E</text>
<circle cx="660.0" cy="695.0" r="10" fill="#050e09" opacity="0.85"/>
<text x="660.0" y="700.0" fill="#4ade80" font-family="ui-monospace,'SF Mono',Menlo,Consolas,'DejaVu Sans Mono',monospace" font-size="13" font-weight="600" text-anchor="middle" opacity="1" letter-spacing="0.5">S</text>
<circle cx="596.0" cy="631.0" r="10" fill="#050e09" opacity="0.85"/>
<text x="596.0" y="636.0" fill="#4ade80" font-family="ui-monospace,'SF Mono',Menlo,Consolas,'DejaVu Sans Mono',monospace" font-size="13" font-weight="600" text-anchor="middle" opacity="1" letter-spacing="0.5">W</text>
<text x="500" y="532" fill="#8d9299" font-family="ui-monospace,'SF Mono',Menlo,Consolas,'DejaVu Sans Mono',monospace" font-size="12" font-weight="600" text-anchor="start" opacity="1" letter-spacing="0.5">HSI</text>
<text x="660" y="740" fill="#2b6f47" font-family="ui-monospace,'SF Mono',Menlo,Consolas,'DejaVu Sans Mono',monospace" font-size="11" font-weight="400" text-anchor="middle" opacity="1" letter-spacing="0.5">HDG 047   CRS 050   DME 5.2</text>
<g clip-path="url(#cpMAP)">
<rect x="838" y="540" width="300" height="182" fill="#123020"/>
<path d="M838 648 C900 630, 950 672, 1010 656 C1070 640, 1110 678, 1138 664 V722 H838 Z" fill="#12283c" opacity="0.8"/>
<line x1="838" y1="552" x2="1138" y2="552" stroke="#3c6f52" stroke-width="0.6" opacity="0.35"/>
<line x1="838" y1="578" x2="1138" y2="578" stroke="#3c6f52" stroke-width="0.6" opacity="0.35"/>
<line x1="838" y1="604" x2="1138" y2="604" stroke="#3c6f52" stroke-width="0.6" opacity="0.35"/>
<line x1="838" y1="630" x2="1138" y2="630" stroke="#3c6f52" stroke-width="0.6" opacity="0.35"/>
<line x1="838" y1="656" x2="1138" y2="656" stroke="#3c6f52" stroke-width="0.6" opacity="0.35"/>
<line x1="838" y1="682" x2="1138" y2="682" stroke="#3c6f52" stroke-width="0.6" opacity="0.35"/>
<line x1="838" y1="708" x2="1138" y2="708" stroke="#3c6f52" stroke-width="0.6" opacity="0.35"/>
<line x1="852" y1="540" x2="852" y2="722" stroke="#3c6f52" stroke-width="0.6" opacity="0.35"/>
<line x1="878" y1="540" x2="878" y2="722" stroke="#3c6f52" stroke-width="0.6" opacity="0.35"/>
<line x1="904" y1="540" x2="904" y2="722" stroke="#3c6f52" stroke-width="0.6" opacity="0.35"/>
<line x1="930" y1="540" x2="930" y2="722" stroke="#3c6f52" stroke-width="0.6" opacity="0.35"/>
<line x1="956" y1="540" x2="956" y2="722" stroke="#3c6f52" stroke-width="0.6" opacity="0.35"/>
<line x1="982" y1="540" x2="982" y2="722" stroke="#3c6f52" stroke-width="0.6" opacity="0.35"/>
<line x1="1008" y1="540" x2="1008" y2="722" stroke="#3c6f52" stroke-width="0.6" opacity="0.35"/>
<line x1="1034" y1="540" x2="1034" y2="722" stroke="#3c6f52" stroke-width="0.6" opacity="0.35"/>
<line x1="1060" y1="540" x2="1060" y2="722" stroke="#3c6f52" stroke-width="0.6" opacity="0.35"/>
<line x1="1086" y1="540" x2="1086" y2="722" stroke="#3c6f52" stroke-width="0.6" opacity="0.35"/>
<line x1="1112" y1="540" x2="1112" y2="722" stroke="#3c6f52" stroke-width="0.6" opacity="0.35"/>
<line x1="1138" y1="540" x2="1138" y2="722" stroke="#3c6f52" stroke-width="0.6" opacity="0.35"/>
<path d="M988 716 L988 646 L1040 588 L1086 556" fill="none" stroke="#f0b429" stroke-width="2.6" stroke-linejoin="round"/>
<path d="M988 640 L994 646 L988 652 L982 646 Z" fill="none" stroke="#4ade80" stroke-width="1.8"/>
<text x="999" y="650" fill="#4ade80" font-family="ui-monospace,'SF Mono',Menlo,Consolas,'DejaVu Sans Mono',monospace" font-size="10" font-weight="400" text-anchor="start" opacity="1" letter-spacing="0.5">TYI</text>
<path d="M1040 582 L1046 588 L1040 594 L1034 588 Z" fill="none" stroke="#4ade80" stroke-width="1.8"/>
<text x="1051" y="592" fill="#4ade80" font-family="ui-monospace,'SF Mono',Menlo,Consolas,'DejaVu Sans Mono',monospace" font-size="10" font-weight="400" text-anchor="start" opacity="1" letter-spacing="0.5">PSK</text>
<path d="M1086 550 L1092 556 L1086 562 L1080 556 Z" fill="none" stroke="#4ade80" stroke-width="1.8"/>
<text x="1097" y="560" fill="#4ade80" font-family="ui-monospace,'SF Mono',Menlo,Consolas,'DejaVu Sans Mono',monospace" font-size="10" font-weight="400" text-anchor="start" opacity="1" letter-spacing="0.5">KGSO</text>
<circle cx="988" cy="716" r="46" fill="none" stroke="#2b6f47" stroke-width="1" opacity="0.7"/>
<circle cx="988" cy="716" r="92" fill="none" stroke="#2b6f47" stroke-width="1" opacity="0.5"/>
<path d="M988 704 L980 724 L988 718 L996 724 Z" fill="#f0b429"/>
</g>
<rect x="838" y="540" width="300" height="182" rx="4" fill="none" stroke="#2b6f47" stroke-width="1.4"/>
<text x="838" y="532" fill="#8d9299" font-family="ui-monospace,'SF Mono',Menlo,Consolas,'DejaVu Sans Mono',monospace" font-size="12" font-weight="600" text-anchor="start" opacity="1" letter-spacing="0.5">MAP</text>
<text x="1138" y="532" fill="#4ade80" font-family="ui-monospace,'SF Mono',Menlo,Consolas,'DejaVu Sans Mono',monospace" font-size="11" font-weight="400" text-anchor="end" opacity="1" letter-spacing="0.5">10 NM</text>
<text x="988" y="740" fill="#2b6f47" font-family="ui-monospace,'SF Mono',Menlo,Consolas,'DejaVu Sans Mono',monospace" font-size="11" font-weight="400" text-anchor="middle" opacity="1" letter-spacing="0.5">TRK 047   GS 165 KT</text>
<g clip-path="url(#cpSVS)">
<rect x="1160" y="540" width="286" height="90" fill="#17618f" opacity="0.75"/>
<rect x="1160" y="630" width="286" height="92" fill="#123020"/>
<line x1="1160" y1="630" x2="1446" y2="630" stroke="#4ade80" stroke-width="1.8" opacity="0.9"/>
<line x1="1243" y1="630" x2="991" y2="722" stroke="#3c6f52" stroke-width="0.8" opacity="0.55"/>
<line x1="1253" y1="630" x2="1043" y2="722" stroke="#3c6f52" stroke-width="0.8" opacity="0.55"/>
<line x1="1263" y1="630" x2="1095" y2="722" stroke="#3c6f52" stroke-width="0.8" opacity="0.55"/>
<line x1="1273" y1="630" x2="1147" y2="722" stroke="#3c6f52" stroke-width="0.8" opacity="0.55"/>
<line x1="1283" y1="630" x2="1199" y2="722" stroke="#3c6f52" stroke-width="0.8" opacity="0.55"/>
<line x1="1293" y1="630" x2="1251" y2="722" stroke="#3c6f52" stroke-width="0.8" opacity="0.55"/>
<line x1="1303" y1="630" x2="1303" y2="722" stroke="#3c6f52" stroke-width="0.8" opacity="0.55"/>
<line x1="1313" y1="630" x2="1355" y2="722" stroke="#3c6f52" stroke-width="0.8" opacity="0.55"/>
<line x1="1323" y1="630" x2="1407" y2="722" stroke="#3c6f52" stroke-width="0.8" opacity="0.55"/>
<line x1="1333" y1="630" x2="1459" y2="722" stroke="#3c6f52" stroke-width="0.8" opacity="0.55"/>
<line x1="1343" y1="630" x2="1511" y2="722" stroke="#3c6f52" stroke-width="0.8" opacity="0.55"/>
<line x1="1353" y1="630" x2="1563" y2="722" stroke="#3c6f52" stroke-width="0.8" opacity="0.55"/>
<line x1="1363" y1="630" x2="1615" y2="722" stroke="#3c6f52" stroke-width="0.8" opacity="0.55"/>
<line x1="1160" y1="642" x2="1446" y2="642" stroke="#3c6f52" stroke-width="0.8" opacity="0.45"/>
<line x1="1160" y1="658" x2="1446" y2="658" stroke="#3c6f52" stroke-width="0.8" opacity="0.45"/>
<line x1="1160" y1="674" x2="1446" y2="674" stroke="#3c6f52" stroke-width="0.8" opacity="0.45"/>
<line x1="1160" y1="690" x2="1446" y2="690" stroke="#3c6f52" stroke-width="0.8" opacity="0.45"/>
<line x1="1160" y1="706" x2="1446" y2="706" stroke="#3c6f52" stroke-width="0.8" opacity="0.45"/>
<line x1="1160" y1="722" x2="1446" y2="722" stroke="#3c6f52" stroke-width="0.8" opacity="0.45"/>
<path d="M1292 632 L1314 632 L1336 700 L1270 700 Z" fill="#050e09" opacity="0.65" stroke="#4ade80" stroke-width="1.6"/>
<line x1="1303" y1="634" x2="1303" y2="698" stroke="#4ade80" stroke-width="1" stroke-dasharray="6 7" opacity="0.9"/>
<circle cx="1303" cy="606" r="9" fill="none" stroke="#f0b429" stroke-width="2"/>
<line x1="1294" y1="606" x2="1284" y2="606" stroke="#f0b429" stroke-width="2"/>
<line x1="1312" y1="606" x2="1322" y2="606" stroke="#f0b429" stroke-width="2"/>
</g>
<rect x="1160" y="540" width="286" height="182" rx="4" fill="none" stroke="#2b6f47" stroke-width="1.4"/>
<text x="1160" y="532" fill="#8d9299" font-family="ui-monospace,'SF Mono',Menlo,Consolas,'DejaVu Sans Mono',monospace" font-size="12" font-weight="600" text-anchor="start" opacity="1" letter-spacing="0.5">SVS</text>
<text x="1446" y="532" fill="#4ade80" font-family="ui-monospace,'SF Mono',Menlo,Consolas,'DejaVu Sans Mono',monospace" font-size="11" font-weight="400" text-anchor="end" opacity="1" letter-spacing="0.5">RWY 05L</text>
<text x="1303" y="740" fill="#2b6f47" font-family="ui-monospace,'SF Mono',Menlo,Consolas,'DejaVu Sans Mono',monospace" font-size="11" font-weight="400" text-anchor="middle" opacity="1" letter-spacing="0.5">TERR   RA 1560 FT</text>
<line x1="490" y1="518" x2="490" y2="744" stroke="#0d0e10" stroke-width="3"/>
<line x1="820" y1="518" x2="820" y2="744" stroke="#0d0e10" stroke-width="3"/>
<line x1="1148" y1="518" x2="1148" y2="744" stroke="#0d0e10" stroke-width="3"/>
<rect x="200" y="774" width="86" height="20" rx="4" fill="#141517" opacity="0.9"/>
<text x="243" y="788" fill="#8d9299" font-family="ui-monospace,'SF Mono',Menlo,Consolas,'DejaVu Sans Mono',monospace" font-size="10" font-weight="400" text-anchor="middle" opacity="1" letter-spacing="0.5">MENU</text>
<rect x="318" y="774" width="86" height="20" rx="4" fill="#141517" opacity="0.9"/>
<text x="361" y="788" fill="#8d9299" font-family="ui-monospace,'SF Mono',Menlo,Consolas,'DejaVu Sans Mono',monospace" font-size="10" font-weight="400" text-anchor="middle" opacity="1" letter-spacing="0.5">DCLT</text>
<rect x="436" y="774" width="86" height="20" rx="4" fill="#141517" opacity="0.9"/>
<text x="479" y="788" fill="#8d9299" font-family="ui-monospace,'SF Mono',Menlo,Consolas,'DejaVu Sans Mono',monospace" font-size="10" font-weight="400" text-anchor="middle" opacity="1" letter-spacing="0.5">RNG</text>
<rect x="554" y="774" width="86" height="20" rx="4" fill="#141517" opacity="0.9"/>
<text x="597" y="788" fill="#8d9299" font-family="ui-monospace,'SF Mono',Menlo,Consolas,'DejaVu Sans Mono',monospace" font-size="10" font-weight="400" text-anchor="middle" opacity="1" letter-spacing="0.5">TEST</text>
<rect x="672" y="774" width="86" height="20" rx="4" fill="#141517" opacity="0.9"/>
<text x="715" y="788" fill="#8d9299" font-family="ui-monospace,'SF Mono',Menlo,Consolas,'DejaVu Sans Mono',monospace" font-size="10" font-weight="400" text-anchor="middle" opacity="1" letter-spacing="0.5">BRT</text>
<path d="M0 452 H140 V1000 H0 Z" fill="url(#shell)"/>
<path d="M1460 452 H1600 V1000 H1460 Z" fill="url(#shell)"/>
<rect x="20" y="500" width="100" height="30" rx="4" fill="#1d1f22"/>
<rect x="28" y="507" width="16" height="16" rx="3" fill="#4ade80" opacity="0.45"/>
<text x="52" y="520" fill="#8d9299" font-family="ui-monospace,'SF Mono',Menlo,Consolas,'DejaVu Sans Mono',monospace" font-size="10" font-weight="400" text-anchor="start" opacity="1" letter-spacing="0.5">LDG GEAR</text>
<rect x="20" y="562" width="100" height="30" rx="4" fill="#1d1f22"/>
<rect x="28" y="569" width="16" height="16" rx="3" fill="#4ade80" opacity="0.45"/>
<text x="52" y="582" fill="#8d9299" font-family="ui-monospace,'SF Mono',Menlo,Consolas,'DejaVu Sans Mono',monospace" font-size="10" font-weight="400" text-anchor="start" opacity="1" letter-spacing="0.5">FLAPS</text>
<rect x="20" y="624" width="100" height="30" rx="4" fill="#1d1f22"/>
<rect x="28" y="631" width="16" height="16" rx="3" fill="#4ade80" opacity="0.45"/>
<text x="52" y="644" fill="#8d9299" font-family="ui-monospace,'SF Mono',Menlo,Consolas,'DejaVu Sans Mono',monospace" font-size="10" font-weight="400" text-anchor="start" opacity="1" letter-spacing="0.5">ANTI ICE</text>
<rect x="20" y="686" width="100" height="30" rx="4" fill="#1d1f22"/>
<rect x="28" y="693" width="16" height="16" rx="3" fill="#4ade80" opacity="0.45"/>
<text x="52" y="706" fill="#8d9299" font-family="ui-monospace,'SF Mono',Menlo,Consolas,'DejaVu Sans Mono',monospace" font-size="10" font-weight="400" text-anchor="start" opacity="1" letter-spacing="0.5">PITOT HT</text>
<rect x="20" y="748" width="100" height="30" rx="4" fill="#1d1f22"/>
<rect x="28" y="755" width="16" height="16" rx="3" fill="#4ade80" opacity="0.45"/>
<text x="52" y="768" fill="#8d9299" font-family="ui-monospace,'SF Mono',Menlo,Consolas,'DejaVu Sans Mono',monospace" font-size="10" font-weight="400" text-anchor="start" opacity="1" letter-spacing="0.5">EXT LTS</text>
<rect x="20" y="810" width="100" height="30" rx="4" fill="#1d1f22"/>
<rect x="28" y="817" width="16" height="16" rx="3" fill="#4ade80" opacity="0.45"/>
<text x="52" y="830" fill="#8d9299" font-family="ui-monospace,'SF Mono',Menlo,Consolas,'DejaVu Sans Mono',monospace" font-size="10" font-weight="400" text-anchor="start" opacity="1" letter-spacing="0.5">BATT</text>
<rect x="1480" y="500" width="100" height="30" rx="4" fill="#1d1f22"/>
<rect x="1488" y="507" width="16" height="16" rx="3" fill="#4ade80" opacity="0.45"/>
<text x="1512" y="520" fill="#8d9299" font-family="ui-monospace,'SF Mono',Menlo,Consolas,'DejaVu Sans Mono',monospace" font-size="10" font-weight="400" text-anchor="start" opacity="1" letter-spacing="0.5">RADAR</text>
<rect x="1480" y="562" width="100" height="30" rx="4" fill="#1d1f22"/>
<rect x="1488" y="569" width="16" height="16" rx="3" fill="#f0b429" opacity="0.45"/>
<text x="1512" y="582" fill="#8d9299" font-family="ui-monospace,'SF Mono',Menlo,Consolas,'DejaVu Sans Mono',monospace" font-size="10" font-weight="400" text-anchor="start" opacity="1" letter-spacing="0.5">IFF</text>
<rect x="1480" y="624" width="100" height="30" rx="4" fill="#1d1f22"/>
<rect x="1488" y="631" width="16" height="16" rx="3" fill="#4ade80" opacity="0.45"/>
<text x="1512" y="644" fill="#8d9299" font-family="ui-monospace,'SF Mono',Menlo,Consolas,'DejaVu Sans Mono',monospace" font-size="10" font-weight="400" text-anchor="start" opacity="1" letter-spacing="0.5">FUEL PMP</text>
<rect x="1480" y="686" width="100" height="30" rx="4" fill="#1d1f22"/>
<rect x="1488" y="693" width="16" height="16" rx="3" fill="#4ade80" opacity="0.45"/>
<text x="1512" y="706" fill="#8d9299" font-family="ui-monospace,'SF Mono',Menlo,Consolas,'DejaVu Sans Mono',monospace" font-size="10" font-weight="400" text-anchor="start" opacity="1" letter-spacing="0.5">HYD 1</text>
<rect x="1480" y="748" width="100" height="30" rx="4" fill="#1d1f22"/>
<rect x="1488" y="755" width="16" height="16" rx="3" fill="#4ade80" opacity="0.45"/>
<text x="1512" y="768" fill="#8d9299" font-family="ui-monospace,'SF Mono',Menlo,Consolas,'DejaVu Sans Mono',monospace" font-size="10" font-weight="400" text-anchor="start" opacity="1" letter-spacing="0.5">HYD 2</text>
<rect x="1480" y="810" width="100" height="30" rx="4" fill="#1d1f22"/>
<rect x="1488" y="817" width="16" height="16" rx="3" fill="#4ade80" opacity="0.45"/>
<text x="1512" y="830" fill="#8d9299" font-family="ui-monospace,'SF Mono',Menlo,Consolas,'DejaVu Sans Mono',monospace" font-size="10" font-weight="400" text-anchor="start" opacity="1" letter-spacing="0.5">GEN</text>
<path d="M140 768 H1460 V1000 H140 Z" fill="url(#panel)"/>
<path d="M300 810 H1300 V1000 H300 Z" fill="#141517" opacity="0.5"/>
<rect x="360" y="846" width="150" height="120" rx="10" fill="#26282b"/>
<rect x="382" y="862" width="30" height="88" rx="12" fill="#141517"/>
<rect x="382" y="876" width="30" height="26" rx="12" fill="#34373b"/>
<rect x="436" y="862" width="30" height="88" rx="12" fill="#141517"/>
<rect x="436" y="886" width="30" height="26" rx="12" fill="#34373b"/>
<text x="435" y="986" fill="#5a5f66" font-family="ui-monospace,'SF Mono',Menlo,Consolas,'DejaVu Sans Mono',monospace" font-size="10" font-weight="400" text-anchor="middle" opacity="1" letter-spacing="0.5">THROTTLE</text>
<path d="M770 1000 L782 900 H818 L830 1000 Z" fill="#141517"/>
<path d="M778 916 C778 880, 822 880, 822 916 L818 946 H782 Z" fill="#26282b"/>
<circle cx="800" cy="892" r="15" fill="#34373b"/>
<circle cx="794" cy="886" r="4" fill="#141517"/>
<circle cx="807" cy="890" r="3.4" fill="#141517"/>
<rect x="1020" y="846" width="120" height="120" rx="8" fill="#0d0e10"/>
<circle cx="1080" cy="906" r="42" fill="none" stroke="#2b6f47" stroke-width="2"/>
<line x1="1080" y1="906" x2="1080" y2="874" stroke="#4ade80" stroke-width="2.4" transform="rotate(38 1080 906)"/>
<text x="1080" y="986" fill="#5a5f66" font-family="ui-monospace,'SF Mono',Menlo,Consolas,'DejaVu Sans Mono',monospace" font-size="10" font-weight="400" text-anchor="middle" opacity="1" letter-spacing="0.5">STBY ALT</text>
<rect width="1600" height="1000" fill="#0b1016" opacity="0.32"/>
</svg>